<svg width="51" height="54" viewBox="0 0 51 54" fill="none" xmlns="http://www.w3.org/2000/svg">
<path opacity="0.87" d="M45.752 11.304V15.672H38.752V13.376C38.752 12.704 38.528 12.144 38.08 11.696C37.632 11.248 37.0907 11.024 36.456 11.024H13.776C13.1413 11.024 12.5813 11.248 12.096 11.696C11.648 12.144 11.424 12.704 11.424 13.376V33.704C11.424 34.3387 11.648 34.88 12.096 35.328C12.5813 35.776 13.1413 36 13.776 36H36.456C37.0907 36 37.632 35.776 38.08 35.328C38.528 34.88 38.752 34.3387 38.752 33.704V29.168H26.096V22.784H45.752V35.72C45.752 37.736 45.0427 39.4533 43.624 40.872C42.2053 42.2907 40.488 43 38.472 43H11.76C9.744 43 8.02667 42.2907 6.608 40.872C5.18933 39.4533 4.48 37.736 4.48 35.72V11.304C4.48 9.32533 5.18933 7.62667 6.608 6.208C8.02667 4.752 9.744 4.024 11.76 4.024H38.472C40.488 4.024 42.2053 4.752 43.624 6.208C45.0427 7.62667 45.752 9.32533 45.752 11.304Z" fill="#2A3132" fill-opacity="0.97"/>
</svg>
